<mxfile host="app.diagrams.net" modified="2020-10-01T06:17:54.487Z" agent="5.0 (Windows NT 10.0; Win64; x64) AppleWebKit/537.36 (KHTML, like Gecko) Chrome/85.0.4183.121 Safari/537.36" etag="LeC8ZxQ2t5oEQX-_ydC0" version="13.7.7" type="github" pages="3">
  <diagram id="pOplcNPBLPHAvVT8j5QP" name="Page-1">
    <mxGraphModel dx="1422" dy="762" grid="1" gridSize="10" guides="1" tooltips="1" connect="1" arrows="1" fold="1" page="1" pageScale="1" pageWidth="827" pageHeight="1169" math="0" shadow="0">
      <root>
        <mxCell id="0" />
        <mxCell id="1" parent="0" />
        <mxCell id="XbId1_GWVl25Oaq-7EzT-1" value="" style="whiteSpace=wrap;html=1;aspect=fixed;" vertex="1" parent="1">
          <mxGeometry x="160" y="150" width="480" height="480" as="geometry" />
        </mxCell>
        <mxCell id="XbId1_GWVl25Oaq-7EzT-2" value="" style="whiteSpace=wrap;html=1;aspect=fixed;" vertex="1" parent="1">
          <mxGeometry x="180" y="180" width="200" height="200" as="geometry" />
        </mxCell>
        <mxCell id="XbId1_GWVl25Oaq-7EzT-3" value="&lt;font style=&quot;font-size: 30px&quot;&gt;Imagen&amp;nbsp;&lt;/font&gt;" style="text;html=1;strokeColor=none;fillColor=none;align=center;verticalAlign=middle;whiteSpace=wrap;rounded=0;" vertex="1" parent="1">
          <mxGeometry x="198.75" y="230" width="162.5" height="110" as="geometry" />
        </mxCell>
        <mxCell id="XbId1_GWVl25Oaq-7EzT-4" value="&lt;b&gt;&lt;font style=&quot;font-size: 30px&quot;&gt;producto y su&amp;nbsp;cantidad de litros&lt;/font&gt;&lt;/b&gt;" style="text;html=1;strokeColor=none;fillColor=none;align=center;verticalAlign=middle;whiteSpace=wrap;rounded=0;" vertex="1" parent="1">
          <mxGeometry x="390" y="170" width="220" height="140" as="geometry" />
        </mxCell>
        <mxCell id="XbId1_GWVl25Oaq-7EzT-5" value="&lt;font style=&quot;font-size: 25px&quot;&gt;$precio&lt;/font&gt;" style="text;html=1;strokeColor=none;fillColor=none;align=center;verticalAlign=middle;whiteSpace=wrap;rounded=0;fontSize=21;" vertex="1" parent="1">
          <mxGeometry x="420" y="320" width="145" height="60" as="geometry" />
        </mxCell>
        <mxCell id="XbId1_GWVl25Oaq-7EzT-6" value="&lt;b&gt;&lt;font style=&quot;font-size: 30px&quot;&gt;Comprar&amp;nbsp;&lt;/font&gt;&lt;/b&gt;" style="text;html=1;align=center;verticalAlign=middle;whiteSpace=wrap;rounded=0;fontSize=21;strokeColor=#5E7BA6;fillColor=#007FFF;" vertex="1" parent="1">
          <mxGeometry x="414" y="400" width="196" height="80" as="geometry" />
        </mxCell>
        <mxCell id="XbId1_GWVl25Oaq-7EzT-7" value="&lt;b&gt;&lt;font style=&quot;font-size: 30px&quot;&gt;carrito&lt;/font&gt;&lt;/b&gt;" style="text;html=1;strokeColor=#6c8ebf;align=center;verticalAlign=middle;whiteSpace=wrap;rounded=0;fontSize=21;fillColor=#007FFF;" vertex="1" parent="1">
          <mxGeometry x="422" y="530" width="180" height="80" as="geometry" />
        </mxCell>
        <mxCell id="XbId1_GWVl25Oaq-7EzT-8" value="&lt;font style=&quot;font-size: 25px&quot;&gt;Graduación alcohólica&amp;nbsp;&lt;br&gt;Características del producto&lt;br&gt;Como es el proceso de creación&amp;nbsp;&lt;/font&gt;" style="text;html=1;strokeColor=none;fillColor=none;align=center;verticalAlign=middle;whiteSpace=wrap;rounded=0;fontSize=21;" vertex="1" parent="1">
          <mxGeometry x="154" y="410" width="260" height="150" as="geometry" />
        </mxCell>
      </root>
    </mxGraphModel>
  </diagram>
  <diagram id="yC5pML9xln3W4UWeuJAh" name="Page-2">
    <mxGraphModel dx="1422" dy="762" grid="1" gridSize="10" guides="1" tooltips="1" connect="1" arrows="1" fold="1" page="1" pageScale="1" pageWidth="827" pageHeight="1169" math="0" shadow="0">
      <root>
        <mxCell id="k4ieSiRodx3wFSHFHTc_-0" />
        <mxCell id="k4ieSiRodx3wFSHFHTc_-1" parent="k4ieSiRodx3wFSHFHTc_-0" />
        <mxCell id="k4ieSiRodx3wFSHFHTc_-2" value="" style="whiteSpace=wrap;html=1;aspect=fixed;" vertex="1" parent="k4ieSiRodx3wFSHFHTc_-1">
          <mxGeometry x="240" y="120" width="480" height="480" as="geometry" />
        </mxCell>
        <mxCell id="k4ieSiRodx3wFSHFHTc_-3" value="" style="whiteSpace=wrap;html=1;aspect=fixed;" vertex="1" parent="k4ieSiRodx3wFSHFHTc_-1">
          <mxGeometry x="260" y="180" width="230" height="230" as="geometry" />
        </mxCell>
        <mxCell id="k4ieSiRodx3wFSHFHTc_-4" value="&lt;font style=&quot;font-size: 20px&quot;&gt;Imagen&amp;nbsp;&lt;/font&gt;" style="text;html=1;strokeColor=none;fillColor=none;align=center;verticalAlign=middle;whiteSpace=wrap;rounded=0;" vertex="1" parent="k4ieSiRodx3wFSHFHTc_-1">
          <mxGeometry x="280" y="240" width="140" height="80" as="geometry" />
        </mxCell>
        <mxCell id="k4ieSiRodx3wFSHFHTc_-5" value="&lt;b&gt;&lt;font style=&quot;font-size: 30px&quot;&gt;producto y su&amp;nbsp;cantidad de litros&lt;/font&gt;&lt;/b&gt;" style="text;html=1;strokeColor=none;fillColor=none;align=center;verticalAlign=middle;whiteSpace=wrap;rounded=0;" vertex="1" parent="k4ieSiRodx3wFSHFHTc_-1">
          <mxGeometry x="490" y="140" width="230" height="150" as="geometry" />
        </mxCell>
        <mxCell id="k4ieSiRodx3wFSHFHTc_-6" value="&lt;font style=&quot;font-size: 25px&quot;&gt;$precio&lt;/font&gt;" style="text;html=1;strokeColor=none;fillColor=none;align=center;verticalAlign=middle;whiteSpace=wrap;rounded=0;fontSize=21;" vertex="1" parent="k4ieSiRodx3wFSHFHTc_-1">
          <mxGeometry x="260" y="110" width="160" height="90" as="geometry" />
        </mxCell>
        <mxCell id="k4ieSiRodx3wFSHFHTc_-7" value="&lt;b&gt;&lt;font style=&quot;font-size: 30px&quot;&gt;Comprar&amp;nbsp;&lt;/font&gt;&lt;/b&gt;" style="text;html=1;align=center;verticalAlign=middle;whiteSpace=wrap;rounded=0;fontSize=21;strokeColor=#5E7BA6;fillColor=#007FFF;" vertex="1" parent="k4ieSiRodx3wFSHFHTc_-1">
          <mxGeometry x="270" y="420" width="180" height="80" as="geometry" />
        </mxCell>
        <mxCell id="k4ieSiRodx3wFSHFHTc_-8" value="&lt;b&gt;&lt;font style=&quot;font-size: 30px&quot;&gt;carrito&lt;/font&gt;&lt;/b&gt;" style="text;html=1;strokeColor=#6c8ebf;align=center;verticalAlign=middle;whiteSpace=wrap;rounded=0;fontSize=21;fillColor=#007FFF;" vertex="1" parent="k4ieSiRodx3wFSHFHTc_-1">
          <mxGeometry x="250" y="515" width="200" height="70" as="geometry" />
        </mxCell>
        <mxCell id="k4ieSiRodx3wFSHFHTc_-9" value="&lt;font style=&quot;font-size: 25px&quot;&gt;Graduación alcohólica&amp;nbsp;&lt;br&gt;Características del producto&lt;br&gt;Como es el proceso de creación&amp;nbsp;&lt;/font&gt;" style="text;html=1;strokeColor=none;fillColor=none;align=center;verticalAlign=middle;whiteSpace=wrap;rounded=0;fontSize=21;" vertex="1" parent="k4ieSiRodx3wFSHFHTc_-1">
          <mxGeometry x="480" y="350" width="230" height="210" as="geometry" />
        </mxCell>
      </root>
    </mxGraphModel>
  </diagram>
  <diagram id="x2SGTsggTMRmbHTCQMBc" name="Page-3">
    <mxGraphModel dx="1422" dy="762" grid="1" gridSize="10" guides="1" tooltips="1" connect="1" arrows="1" fold="1" page="1" pageScale="1" pageWidth="827" pageHeight="1169" math="0" shadow="0">
      <root>
        <mxCell id="SdK8LodG9-Zm72D1iMzY-0" />
        <mxCell id="SdK8LodG9-Zm72D1iMzY-1" parent="SdK8LodG9-Zm72D1iMzY-0" />
        <mxCell id="SdK8LodG9-Zm72D1iMzY-2" value="" style="whiteSpace=wrap;html=1;aspect=fixed;" vertex="1" parent="SdK8LodG9-Zm72D1iMzY-1">
          <mxGeometry x="160" y="120" width="480" height="480" as="geometry" />
        </mxCell>
        <mxCell id="SdK8LodG9-Zm72D1iMzY-3" value="" style="whiteSpace=wrap;html=1;aspect=fixed;" vertex="1" parent="SdK8LodG9-Zm72D1iMzY-1">
          <mxGeometry x="400" y="140" width="230" height="230" as="geometry" />
        </mxCell>
        <mxCell id="SdK8LodG9-Zm72D1iMzY-4" value="&lt;font style=&quot;font-size: 25px&quot;&gt;Imagen&lt;/font&gt;&amp;nbsp;" style="text;html=1;strokeColor=none;fillColor=none;align=center;verticalAlign=middle;whiteSpace=wrap;rounded=0;" vertex="1" parent="SdK8LodG9-Zm72D1iMzY-1">
          <mxGeometry x="470" y="210" width="120" height="60" as="geometry" />
        </mxCell>
        <mxCell id="SdK8LodG9-Zm72D1iMzY-5" value="&lt;b&gt;&lt;font style=&quot;font-size: 30px&quot;&gt;producto y su&amp;nbsp;cantidad de litros&lt;/font&gt;&lt;/b&gt;" style="text;html=1;strokeColor=none;fillColor=none;align=center;verticalAlign=middle;whiteSpace=wrap;rounded=0;" vertex="1" parent="SdK8LodG9-Zm72D1iMzY-1">
          <mxGeometry x="160" y="150" width="270" height="100" as="geometry" />
        </mxCell>
        <mxCell id="SdK8LodG9-Zm72D1iMzY-6" value="&lt;font style=&quot;font-size: 25px&quot;&gt;$precio&lt;/font&gt;" style="text;html=1;strokeColor=none;fillColor=none;align=center;verticalAlign=middle;whiteSpace=wrap;rounded=0;fontSize=21;" vertex="1" parent="SdK8LodG9-Zm72D1iMzY-1">
          <mxGeometry x="190" y="310" width="180" height="70" as="geometry" />
        </mxCell>
        <mxCell id="SdK8LodG9-Zm72D1iMzY-7" value="&lt;b&gt;&lt;font style=&quot;font-size: 30px&quot;&gt;Comprar&amp;nbsp;&lt;/font&gt;&lt;/b&gt;" style="text;html=1;align=center;verticalAlign=middle;whiteSpace=wrap;rounded=0;fontSize=21;strokeColor=#5E7BA6;fillColor=#007FFF;" vertex="1" parent="SdK8LodG9-Zm72D1iMzY-1">
          <mxGeometry x="450" y="410" width="160" height="80" as="geometry" />
        </mxCell>
        <mxCell id="SdK8LodG9-Zm72D1iMzY-8" value="&lt;b&gt;&lt;font style=&quot;font-size: 30px&quot;&gt;carrito&lt;/font&gt;&lt;/b&gt;" style="text;html=1;strokeColor=#6c8ebf;align=center;verticalAlign=middle;whiteSpace=wrap;rounded=0;fontSize=21;fillColor=#007FFF;" vertex="1" parent="SdK8LodG9-Zm72D1iMzY-1">
          <mxGeometry x="440" y="515" width="170" height="70" as="geometry" />
        </mxCell>
        <mxCell id="SdK8LodG9-Zm72D1iMzY-9" value="&lt;font style=&quot;font-size: 25px&quot;&gt;Graduación alcohólica&amp;nbsp;&lt;br&gt;Características del producto&lt;br&gt;Como es el proceso de creación&amp;nbsp;&lt;/font&gt;" style="text;html=1;strokeColor=none;fillColor=none;align=center;verticalAlign=middle;whiteSpace=wrap;rounded=0;fontSize=21;" vertex="1" parent="SdK8LodG9-Zm72D1iMzY-1">
          <mxGeometry x="160" y="410" width="290" height="140" as="geometry" />
        </mxCell>
      </root>
    </mxGraphModel>
  </diagram>
</mxfile>
